<svg xmlns="http://www.w3.org/2000/svg" width="79" height="80" viewBox="0 0 79 80">    <g fill="none" fill-rule="evenodd">        <path d="M-2-1h82v82H-2z"/>        <g fill-rule="nonzero">            <path fill="#FFD500" d="M60.59 42.61c-16.67 5.84-19.08-6.07-18.39-10.82.87-6.06 8.3-15.86 35.63-24.89 0 0-.89 29.98-17.24 35.71zM18.19 38.52c11.41 1.33 11.29-6.24 10.2-9C27 25.91 20.93 20.93 2.3 19.08c0 0 4.7 18.13 15.89 19.44z"/>            <path fill="#333" d="M78.3.32A1.51 1.51 0 0 0 77 .05C75 .6 52.59 8.32 47.32 11.44c-8.74 5.18-10.94 12.71-11.48 15.71-.61 3.37-.43 10.93 4.57 15.42.12.11.25.2.37.3a79.67 79.67 0 0 0-3.08 8.33 73.59 73.59 0 0 0-3.26-9.08 56.27 56.27 0 0 0-3.16-6.21c2.83-3.52 2.3-8.43 1.6-10.57-1.54-4.72-6.45-11.4-31.17-14.81A1.51 1.51 0 0 0 0 11.81a2 2 0 0 0 0 .35 1.54 1.54 0 0 0 0 .37c.15 1 3.83 24.4 18.42 26.7a24.47 24.47 0 0 0 3.86.32A12.64 12.64 0 0 0 29 37.92a69.86 69.86 0 0 1 7.11 19.3A81.39 81.39 0 0 0 34 77H23.28a1.5 1.5 0 0 0 0 3h24.55a1.5 1.5 0 0 0 0-3H37a79.88 79.88 0 0 1 6.35-32.49A15.27 15.27 0 0 0 50 45.89a29 29 0 0 0 8.15-1.32C78 38.72 78.85 3 78.88 1.53A1.46 1.46 0 0 0 78.3.32zm-59.39 36C8.55 34.63 4.41 19 3.31 13.79 27.14 17.42 29.3 24.05 30 26.27a9.41 9.41 0 0 1-.49 6.87c-3.75-5.48-8.19-9.36-13.13-11.39a1.5 1.5 0 0 0-1.14 2.77c5.13 2.11 9.1 6.22 12.14 10.84-1.92 1.18-4.76 1.49-8.47.91v.05zm38.34 5.42c-5.31 1.57-9.55 1.57-12.67.06a69 69 0 0 1 20.76-25.54 1.5 1.5 0 1 0-1.81-2.39A71.92 71.92 0 0 0 42.09 40c-3.42-3.39-3.87-9.18-3.3-12.34.47-2.59 2.38-9.11 10.06-13.66C53 11.54 69.77 5.59 75.78 3.59c-.51 7.64-3.33 33.63-18.53 38.1v.05z"/>        </g>    </g></svg>