<svg width="24" height="24" viewBox="0 0 24 24" fill="none" xmlns="http://www.w3.org/2000/svg">
<g clip-path="url(#clip0_5083_47)">
<path d="M15.1414 1.36328H21.4194C22.2478 1.36328 22.9194 2.03485 22.9194 2.86328V9.14132C22.9194 9.96975 22.2478 10.6413 21.4194 10.6413H15.1414C14.3129 10.6413 13.6414 9.96975 13.6414 9.14132V2.86328C13.6414 2.03485 14.3129 1.36328 15.1414 1.36328Z" stroke="#fff"/>
<path d="M14.8679 13.6414H21.146C21.9744 13.6414 22.646 14.3129 22.646 15.1414V21.4194C22.646 22.2478 21.9744 22.9194 21.146 22.9194H14.8679C14.0395 22.9194 13.3679 22.2478 13.3679 21.4194V15.1414C13.3679 14.3129 14.0395 13.6414 14.8679 13.6414Z" stroke="#fff"/>
<path d="M2.86328 1.36328H9.14132C9.96975 1.36328 10.6413 2.03485 10.6413 2.86328V9.14132C10.6413 9.96975 9.96975 10.6413 9.14132 10.6413H2.86328C2.03485 10.6413 1.36328 9.96975 1.36328 9.14132V2.86328C1.36328 2.03485 2.03485 1.36328 2.86328 1.36328Z" stroke="url(#paint0_radial_5083_47)"/>
<path d="M2.86328 13.3679H9.14132C9.96975 13.3679 10.6413 14.0395 10.6413 14.8679V21.146C10.6413 21.9744 9.96975 22.646 9.14132 22.646H2.86328C2.03485 22.646 1.36328 21.9744 1.36328 21.146V14.8679C1.36328 14.0395 2.03485 13.3679 2.86328 13.3679Z" stroke="#fff"/>
</g>
<defs>
<radialGradient id="paint0_radial_5083_47" cx="0" cy="0" r="1" gradientUnits="userSpaceOnUse" gradientTransform="translate(1.19483 3.53162) rotate(26.2443) scale(10.951 202.522)">
<stop stop-color="#293EFF"/>
<stop offset="0.0001" stop-color="#fff"/>
<stop offset="0.274921" stop-color="#fff"/>
<stop offset="0.42597" stop-color="#fff"/>
<stop offset="0.470486" stop-color="#fff"/>
<stop offset="0.530142" stop-color="#fff"/>
<stop offset="0.629105" stop-color="#fff"/>
<stop offset="0.764528" stop-color="#fff"/>
<stop offset="0.899951" stop-color="#fff"/>
<stop offset="0.952037" stop-color="#fff"/>
<stop offset="1" stop-color="#fff"/>
<stop offset="1" stop-color="#fff"/>
</radialGradient>
<clipPath id="clip0_5083_47">
<rect width="24" height="24" fill="white"/>
</clipPath>
</defs>
</svg>
