<svg width="50" height="50" viewBox="0 0 50 50" fill="none" xmlns="http://www.w3.org/2000/svg">
<g clip-path="url(#clip0_2262_201)">
<path d="M11.6668 15.8333C10.7477 15.8333 10.0001 15.0858 10.0001 14.1666C10.0001 13.7066 9.62676 13.3333 9.1668 13.3333C8.70684 13.3333 8.3335 13.7066 8.3335 14.1666C8.3335 15.7149 9.4002 17.0091 10.8335 17.3816V17.5C10.8335 17.96 11.2068 18.3333 11.6668 18.3333C12.1268 18.3333 12.5001 17.96 12.5001 17.5V17.3816C13.9334 17.0092 15.0001 15.7149 15.0001 14.1666C15.0001 12.3282 13.5051 10.8333 11.6668 10.8333C10.7477 10.8333 10.0001 10.0858 10.0001 9.16661C10.0001 8.24747 10.7476 7.49991 11.6668 7.49991C12.586 7.49991 13.3335 8.24737 13.3335 9.16661C13.3335 9.62657 13.7068 9.99991 14.1668 9.99991C14.6268 9.99991 15.0001 9.62657 15.0001 9.16661C15.0001 7.61827 13.9334 6.32413 12.5001 5.95157V5.83321C12.5001 5.37325 12.1268 4.99991 11.6668 4.99991C11.2068 4.99991 10.8335 5.37325 10.8335 5.83321V5.95157C9.4002 6.32403 8.3335 7.61827 8.3335 9.16661C8.3335 11.005 9.82852 12.4999 11.6668 12.4999C12.5859 12.4999 13.3335 13.2474 13.3335 14.1666C13.3334 15.0858 12.5859 15.8333 11.6668 15.8333Z" fill="url(#paint0_radial_2262_201)"/>
<path d="M11.6667 23.3333C18.1 23.3333 23.3334 18.1 23.3334 11.6666C23.3334 5.2332 18.1 0 11.6667 0C5.2334 0 0 5.2333 0 11.6667C0 18.1001 5.2333 23.3333 11.6667 23.3333ZM11.6667 1.6667C17.1809 1.6667 21.6667 6.15254 21.6667 11.6667C21.6667 17.1809 17.1809 21.6667 11.6667 21.6667C6.15254 21.6667 1.6667 17.1809 1.6667 11.6667C1.6667 6.15254 6.15254 1.6667 11.6667 1.6667Z" fill="url(#paint1_radial_2262_201)"/>
<path d="M46.6667 18.3333C44.8283 18.3333 43.3334 19.8283 43.3334 21.6666C43.3334 22.2833 43.5126 22.8532 43.8059 23.3491L35.0158 32.1392C34.52 31.8458 33.95 31.6667 33.3333 31.6667C32.7191 31.6667 32.15 31.845 31.655 32.1367L27.8633 28.345C28.155 27.85 28.3333 27.2809 28.3333 26.6667C28.3333 24.8283 26.8383 23.3334 25 23.3334C23.1616 23.3334 21.6667 24.8284 21.6667 26.6667C21.6667 27.0601 21.7476 27.4317 21.8733 27.7817L5.5 44.155C4.91582 43.65 4.16416 43.3333 3.3333 43.3333C1.49502 43.3333 0 44.8283 0 46.6667C0 48.5051 1.49502 50 3.3333 50C5.17168 50 6.6666 48.505 6.6666 46.6667C6.6666 46.2734 6.58574 45.9017 6.45996 45.5517L22.8333 29.1783C23.4175 29.6833 24.1691 30 25 30C25.6184 30 26.19 29.82 26.6866 29.5259L30.4741 33.3134C30.18 33.8101 30 34.3818 30 35C30 36.8384 31.495 38.3333 33.3333 38.3333C35.1717 38.3333 36.6666 36.8383 36.6666 35C36.6666 34.3833 36.4874 33.8134 36.1941 33.3175L44.9842 24.5275C45.48 24.8208 46.05 24.9999 46.6667 24.9999C48.505 25 50 23.505 50 21.6667C50 19.8284 48.505 18.3333 46.6667 18.3333ZM3.3333 48.3333C2.41416 48.3333 1.6666 47.5859 1.6666 46.6666C1.6666 45.7474 2.41416 45 3.3333 45C4.25244 45 5 45.7475 5 46.6667C5 47.586 4.25254 48.3333 3.3333 48.3333ZM25 28.3333C24.0809 28.3333 23.3333 27.5859 23.3333 26.6666C23.3333 25.7475 24.0808 24.9999 25 24.9999C25.9191 24.9999 26.6667 25.7474 26.6667 26.6666C26.6667 27.5859 25.9191 28.3333 25 28.3333ZM33.3333 36.6667C32.4142 36.6667 31.6666 35.9193 31.6666 35C31.6666 34.0808 32.4141 33.3333 33.3333 33.3333C34.2524 33.3333 35 34.0808 35 35C35 35.9193 34.2525 36.6667 33.3333 36.6667ZM46.6667 23.3333C46.2125 23.3333 45.8 23.1491 45.4992 22.8533C45.4959 22.85 45.495 22.845 45.4917 22.8417C45.4884 22.8384 45.4834 22.8375 45.48 22.8342C45.1842 22.5333 45 22.1208 45 21.6667C45 20.7476 45.7475 20 46.6667 20C47.5859 20 48.3334 20.7475 48.3334 21.6667C48.3333 22.5859 47.5858 23.3333 46.6667 23.3333Z" fill="#252525"/>
</g>
<defs>
<radialGradient id="paint0_radial_2262_201" cx="0" cy="0" r="1" gradientUnits="userSpaceOnUse" gradientTransform="translate(8.54855 8.46146) rotate(44.5978) scale(8.94723 208.575)">
<stop stop-color="#293EFF"/>
<stop offset="0.0001" stop-color="#2D3CFF"/>
<stop offset="0.274921" stop-color="#6619FF"/>
<stop offset="0.42597" stop-color="#8506FF"/>
<stop offset="0.470486" stop-color="#8F00FF"/>
<stop offset="0.530142" stop-color="#9B0EE2"/>
<stop offset="0.629105" stop-color="#B025B3"/>
<stop offset="0.764528" stop-color="#CD4471"/>
<stop offset="0.899951" stop-color="#EA6330"/>
<stop offset="0.952037" stop-color="#F56F17"/>
<stop offset="1" stop-color="#FF7A00"/>
<stop offset="1" stop-color="#0047FF"/>
</radialGradient>
<radialGradient id="paint1_radial_2262_201" cx="0" cy="0" r="1" gradientUnits="userSpaceOnUse" gradientTransform="translate(0.75269 6.05768) rotate(26.2442) scale(24.8612 459.768)">
<stop stop-color="#293EFF"/>
<stop offset="0.0001" stop-color="#2D3CFF"/>
<stop offset="0.274921" stop-color="#6619FF"/>
<stop offset="0.42597" stop-color="#8506FF"/>
<stop offset="0.470486" stop-color="#8F00FF"/>
<stop offset="0.530142" stop-color="#9B0EE2"/>
<stop offset="0.629105" stop-color="#B025B3"/>
<stop offset="0.764528" stop-color="#CD4471"/>
<stop offset="0.899951" stop-color="#EA6330"/>
<stop offset="0.952037" stop-color="#F56F17"/>
<stop offset="1" stop-color="#FF7A00"/>
<stop offset="1" stop-color="#0047FF"/>
</radialGradient>
<clipPath id="clip0_2262_201">
<rect width="50" height="50" fill="white"/>
</clipPath>
</defs>
</svg>
